<svg width="278" height="162" viewBox="0 0 278 162" fill="none" xmlns="http://www.w3.org/2000/svg" class="h-16 w-auto"><path fill-rule="evenodd" clip-rule="evenodd" d="M51.5494 14.4895L21.0452 87.2564L5.1848 121.659L1.44002 131.679C-5.03432 149.004 11.415 166.121 28.9755 160.333L61.6631 141.539C68.118 137.828 76.0626 137.848 82.4988 141.592L114.721 160.333L115.822 160.639C132.197 165.2 147.1 149.773 141.981 133.558L122.651 87.2564L96.3823 25.9657L91.8976 14.7955C84.6312 -3.30266 59.0892 -3.49634 51.5494 14.4895ZM57.9916 63.95C56.1638 66.3879 54.559 68.9855 53.1966 71.7112L53.0981 71.9083C51.5619 74.9818 50.4423 78.2464 49.7686 81.6157L49.3364 83.7778C49.3099 83.9099 49.2947 84.044 49.2905 84.1787L49.0837 91.0061C48.6698 104.673 60.2864 115.63 73.9003 114.414L76.0611 114.222L80.5219 113.23L85.2305 110.503L85.3556 110.418C90.1724 107.153 93.4039 102.021 94.267 96.266L94.3998 95.3801C94.7284 92.093 94.5662 88.7751 93.9185 85.5358L93.9041 85.4638L92.9395 82.5687C90.6444 75.681 86.6823 69.468 81.4058 64.4829C80.8951 64.0003 80.1112 63.9559 79.5493 64.3776L77.1413 66.1841C76.7937 66.4449 76.6564 66.9017 76.8025 67.311L79.035 73.5642L71.6004 63.152L70.4098 61.4844C69.5528 60.2844 68.5983 59.1572 67.5559 58.1144L66.2109 56.7689C65.8988 56.4567 65.3963 56.4458 65.0709 56.7442L61.8102 59.7341C60.4098 61.0183 59.1315 62.4296 57.9916 63.95Z" fill="url(#paint0_linear_286_1911)"></path><path d="M147.434 21.9318C147.434 9.02469 159.296 -0.721504 172.006 1.49853C176.254 2.24051 180.146 4.51949 182.84 7.88797L185.267 10.923C186.143 12.0187 186.841 13.2463 187.333 14.5602C187.827 15.8798 188.203 17.2409 188.456 18.6274L189.067 21.9974L190.059 25.964L190.802 28.691L191.545 31.418L191.602 31.6091C193.868 39.3839 197.104 46.8427 201.231 53.8101C202.371 55.7348 203.703 57.5388 205.208 59.1943L209.516 63.9355C211.733 66.3744 214.287 68.4828 217.102 70.1964L221.049 72.5998C223.18 73.8975 225.466 74.9218 227.852 75.6484L235.657 78.0248L236.029 21.5598C236.099 10.8711 244.336 2.01438 254.987 1.17312C265.712 -0.396813 275.338 7.90106 275.372 18.7432L275.749 142.474C275.779 152.68 267.665 161.046 257.465 161.322L255.614 161.27C246.207 161.01 238.177 154.397 236.111 145.214C235.481 142.411 235.193 139.542 235.256 136.669L235.32 133.725C235.52 124.557 229.544 116.396 220.747 113.82C217.144 112.766 213.623 111.453 210.21 109.892L203.477 106.813C199.841 105.15 196.478 102.917 193.531 100.215C192.544 99.3092 191.656 98.2928 190.894 97.1911L187.58 92.4035V135.044V144.389C187.58 146.711 186.965 148.992 185.795 150.998L185.203 152.013C184.478 153.257 183.62 154.42 182.647 155.483C180.068 158.297 176.595 160.13 172.817 160.67L170.273 161.034C158.219 162.756 147.434 153.399 147.434 141.218V21.9318Z" fill="#FF7921"></path><path d="M147.434 20.5145C147.434 19.1932 147.576 17.8758 147.859 16.585C149.678 8.26735 156.608 2.04378 165.069 1.12864L166.928 0.927658C168.461 0.761886 170.01 0.843527 171.518 1.16949L173.825 1.66877C181.892 3.41352 187.71 10.4646 187.894 18.7185L188.076 26.9557L181.633 54.2256L171.72 80.9998L164.285 100.832L155.859 120.169L147.434 137.027V78.0249V48.2758V20.5145Z" fill="url(#paint1_linear_286_1911)"></path><defs><linearGradient id="paint0_linear_286_1911" x1="21.0453" y1="21.5028" x2="139.059" y2="172.19" gradientUnits="userSpaceOnUse"><stop stop-color="#FC502E"></stop><stop offset="1" stop-color="#F92F38"></stop></linearGradient><linearGradient id="paint1_linear_286_1911" x1="148.921" y1="0.181562" x2="194.054" y2="153.876" gradientUnits="userSpaceOnUse"><stop stop-color="#FA3F34"></stop><stop offset="1" stop-color="#F93337"></stop></linearGradient></defs></svg>